<?xml version="1.0" encoding="iso-8859-1"?>
<!-- Generator: Adobe Illustrator 19.1.0, SVG Export Plug-In . SVG Version: 6.00 Build 0)  -->
<svg xmlns="http://www.w3.org/2000/svg" xmlns:xlink="http://www.w3.org/1999/xlink" version="1.1" id="Capa_1" x="0px" y="0px" viewBox="0 0 289.735 289.735" style="enable-background:new 0 0 289.735 289.735;" xml:space="preserve" width="512px" height="512px">
<g>
	<path d="M244.163,91.006c-12.676-15.091-28.37-23.541-45.875-24.749c-15.694-1.207-31.992,4.225-46.479,15.091   c2.414-19.316,10.865-54.326,44.668-70.02c3.018-1.207,4.225-4.829,3.018-7.847s-4.829-4.225-7.847-3.018   c-22.938,10.865-35.614,27.767-42.857,45.272c-9.054-21.73-30.181-36.821-55.533-36.821c-3.622,0-6.036,2.414-6.036,6.036   c0,30.785,23.541,56.137,53.119,59.759c-0.604,3.018-0.604,5.433-1.207,7.847c-14.487-11.469-31.388-16.901-47.686-15.694   c-17.505,1.207-33.199,9.658-45.875,24.749c-18.712,22.334-27.163,56.74-22.938,92.354c7.244,61.57,48.893,108.652,94.165,105.634   c9.054-0.604,17.505-3.018,25.352-7.244c1.811-1.207,4.225-1.207,5.433,0c7.847,4.225,16.298,6.64,25.352,7.244   c1.207,0,3.018,0,4.225,0c43.461,0,83.3-46.479,89.94-105.634C271.326,147.746,262.876,113.34,244.163,91.006z M99.898,20.986   c21.127,3.018,38.028,19.919,41.046,41.046C119.817,59.014,102.916,42.113,99.898,20.986z M255.632,182.153   c-6.036,54.93-42.857,97.183-81.489,94.769c-7.243-0.604-13.883-2.414-20.523-6.036c-2.414-1.207-5.433-2.414-8.451-2.414   s-6.036,0.604-8.451,2.414c-6.64,3.622-13.28,5.433-20.523,6.036c-38.632,2.414-74.849-39.839-81.489-94.769   c-3.622-32.596,4.225-63.38,20.523-83.3C65.491,86.177,78.167,79.537,92.654,78.33c16.298-1.207,33.803,6.036,47.686,21.127l0,0   c1.207,1.207,2.414,1.811,4.225,1.811c0,0,0,0,0.604,0c0.604,0,1.207,0,1.811-0.604h0.604c0.604,0,0.604-0.604,1.207-0.604   c0,0,0.604,0,0.604-0.604c14.487-14.487,31.388-22.334,47.686-21.127c13.883,1.207,27.163,7.847,37.425,20.523   C251.407,118.169,259.254,149.557,255.632,182.153z" fill="#9d9a99"/>
</g>
</svg>
