<svg xmlns="http://www.w3.org/2000/svg" xmlns:xlink="http://www.w3.org/1999/xlink" preserveAspectRatio="xMidYMid" width="110" height="111" viewBox="0 0 110 111">
  <defs>
    <style>
      .cls-1 {
        stroke: #bd9d5e;
        stroke-width: 1px;
        fill: none;
        fill-rule: evenodd;
      }
    </style>
  </defs>
  <path d="M75.295,11.958 C90.345,18.833 100.835,33.500 102.659,50.917 L109.500,50.917 C106.764,22.500 83.504,0.500 54.772,0.500 C53.860,0.500 52.948,0.500 51.579,0.500 L68.910,17.917 L75.295,11.958 ZM46.563,8.292 C43.826,5.542 39.722,5.542 36.985,8.292 L7.797,37.625 C5.060,40.375 5.060,44.500 7.797,47.250 L62.525,102.250 C65.261,105.000 69.366,105.000 72.103,102.250 L101.291,72.917 C104.027,70.167 104.027,66.042 101.291,63.292 L46.563,8.292 ZM67.542,97.667 L12.814,42.667 L42.002,13.333 L96.730,68.333 L67.542,97.667 ZM34.249,99.042 C19.199,92.167 8.709,77.500 6.885,60.083 L0.500,60.083 C2.780,88.500 26.040,110.500 54.772,110.500 C55.684,110.500 56.596,110.500 57.964,110.500 L40.634,93.083 L34.249,99.042 Z" class="cls-1"/>
</svg>
