<svg xmlns="http://www.w3.org/2000/svg" xmlns:xlink="http://www.w3.org/1999/xlink" preserveAspectRatio="xMidYMid" width="18.969" height="21" viewBox="0 0 18.969 21">
  <defs>
    <style>
      .cls-1 {
        stroke: #9d9a99;
        stroke-width: 1px;
        fill: none;
        fill-rule: evenodd;
      }
    </style>
  </defs>
  <path d="M18.343,0.514 L0.957,0.514 C0.543,0.514 0.584,0.401 0.584,0.807 L0.509,4.235 C0.453,5.901 0.607,8.391 1.667,9.926 C1.687,9.929 2.276,11.071 2.276,11.071 C2.928,12.350 3.461,14.223 3.461,15.652 L3.461,19.765 C3.461,20.171 3.796,20.500 4.210,20.500 L14.542,20.500 C14.956,20.500 15.291,20.171 15.291,19.765 L15.291,15.652 C15.278,14.286 15.638,12.909 16.358,11.298 C16.615,10.776 17.004,10.214 17.004,10.214 C17.492,9.353 18.325,7.690 18.477,5.252 C18.477,5.252 18.501,0.929 18.343,0.514 Z" class="cls-1"/>
</svg>
