<svg xmlns="http://www.w3.org/2000/svg" xmlns:xlink="http://www.w3.org/1999/xlink" preserveAspectRatio="xMidYMid" width="26" height="26" viewBox="0 0 26 26">
  <defs>
    <style>
      .cls-1 {
        fill: #bd9d5e;
        fill-rule: evenodd;
      }
    </style>
  </defs>
  <path d="M25.441,4.085 L20.939,4.085 L20.939,0.541 C20.939,0.242 20.689,-0.000 20.380,-0.000 C20.071,-0.000 19.821,0.242 19.821,0.541 L19.821,4.085 L6.179,4.085 L6.179,0.541 C6.179,0.242 5.929,-0.000 5.620,-0.000 C5.311,-0.000 5.061,0.242 5.061,0.541 L5.061,4.085 L0.559,4.085 C0.250,4.085 0.000,4.327 0.000,4.626 L0.000,25.458 C0.000,25.757 0.250,26.000 0.559,26.000 L25.441,26.000 C25.750,26.000 26.000,25.757 26.000,25.458 L26.000,4.626 C26.000,4.327 25.750,4.085 25.441,4.085 ZM24.882,24.917 L1.118,24.917 L1.118,11.295 L24.882,11.295 L24.882,24.917 ZM24.882,10.212 L1.118,10.212 L1.118,5.168 L5.061,5.168 L5.061,7.077 C5.061,7.376 5.311,7.619 5.620,7.619 C5.929,7.619 6.179,7.376 6.179,7.077 L6.179,5.168 L19.821,5.168 L19.821,7.077 C19.821,7.376 20.071,7.619 20.380,7.619 C20.689,7.619 20.939,7.376 20.939,7.077 L20.939,5.168 L24.882,5.168 L24.882,10.212 Z" class="cls-1"/>
</svg>
