<svg xmlns="http://www.w3.org/2000/svg" xmlns:xlink="http://www.w3.org/1999/xlink" preserveAspectRatio="xMidYMid" width="26" height="26" viewBox="0 0 26 26">
  <defs>
    <style>
      .cls-1 {
        fill: #88cc98;
        fill-rule: evenodd;
      }
    </style>
  </defs>
  <path d="M13.000,26.000 C5.832,26.000 -0.000,20.168 -0.000,13.000 C-0.000,5.832 5.832,-0.000 13.000,-0.000 C20.168,-0.000 26.000,5.832 26.000,13.000 C26.000,20.168 20.168,26.000 13.000,26.000 ZM13.000,0.839 C6.294,0.839 0.839,6.294 0.839,13.000 C0.839,19.706 6.294,25.161 13.000,25.161 C19.706,25.161 25.161,19.706 25.161,13.000 C25.161,6.294 19.706,0.839 13.000,0.839 ZM5.949,13.898 L6.542,13.305 L10.597,17.359 L19.421,8.535 L20.014,9.128 L10.597,18.545 L5.949,13.898 Z" class="cls-1"/>
</svg>
