<svg xmlns="http://www.w3.org/2000/svg" xmlns:xlink="http://www.w3.org/1999/xlink" preserveAspectRatio="xMidYMid" width="17" height="20" viewBox="0 0 17 20">
  <defs>
    <style>
      .cls-1 {
        fill: #000;
        fill-rule: evenodd;
      }
    </style>
  </defs>
  <path d="M16.115,5.017 C16.034,5.017 15.954,4.987 15.892,4.926 L15.239,4.279 C15.225,4.306 15.211,4.333 15.188,4.356 L14.193,5.341 C15.915,6.882 17.000,9.110 17.000,11.584 C17.000,16.225 13.187,20.000 8.500,20.000 C3.813,20.000 -0.000,16.225 -0.000,11.584 C-0.000,7.362 3.157,3.858 7.256,3.260 L7.256,2.234 L6.351,2.234 C6.177,2.234 6.036,2.094 6.036,1.922 L6.036,0.312 C6.036,0.140 6.177,-0.000 6.351,-0.000 L10.824,-0.000 C10.998,-0.000 11.139,0.140 11.139,0.312 L11.139,1.922 C11.139,2.094 10.998,2.234 10.824,2.234 L9.919,2.234 L9.919,3.289 C11.330,3.525 12.623,4.105 13.708,4.941 L14.743,3.916 C14.766,3.893 14.793,3.879 14.821,3.864 L14.167,3.217 C14.044,3.096 14.044,2.899 14.167,2.777 C14.290,2.655 14.489,2.655 14.612,2.777 L16.337,4.485 C16.461,4.607 16.461,4.804 16.337,4.926 C16.276,4.987 16.195,5.017 16.115,5.017 ZM10.509,1.611 L10.509,0.623 L6.666,0.623 L6.666,1.611 L7.571,1.611 L9.604,1.611 L10.509,1.611 ZM7.886,2.234 L7.886,3.193 C8.089,3.179 8.293,3.169 8.500,3.169 C8.766,3.169 9.029,3.183 9.289,3.207 L9.289,2.234 L7.886,2.234 ZM9.395,3.844 L7.605,3.844 C3.685,4.286 0.630,7.587 0.630,11.584 C0.630,15.881 4.160,19.377 8.500,19.377 C12.840,19.377 16.370,15.881 16.370,11.584 C16.370,7.587 13.315,4.286 9.395,3.844 ZM8.500,12.520 C7.979,12.520 7.556,12.101 7.556,11.584 C7.556,11.178 7.819,10.836 8.185,10.707 L8.185,5.630 C8.185,5.458 8.326,5.318 8.500,5.318 C8.674,5.318 8.815,5.457 8.815,5.630 L8.815,10.707 C9.181,10.836 9.444,11.178 9.444,11.584 C9.444,12.101 9.021,12.520 8.500,12.520 Z" class="cls-1"/>
</svg>
