<svg xmlns="http://www.w3.org/2000/svg" xmlns:xlink="http://www.w3.org/1999/xlink" preserveAspectRatio="xMidYMid" width="14" height="14" viewBox="0 0 14 14">
  <defs>
    <style>
      .cls-1 {
        fill: #bd9d5e;
        fill-rule: evenodd;
      }
    </style>
  </defs>
  <path d="M7.541,6.986 L13.860,13.316 C14.017,13.472 14.017,13.726 13.860,13.883 C13.782,13.961 13.680,14.000 13.577,14.000 C13.475,14.000 13.372,13.961 13.294,13.883 L6.975,7.553 L0.656,13.883 C0.578,13.961 0.475,14.000 0.373,14.000 C0.270,14.000 0.168,13.961 0.090,13.883 C-0.067,13.726 -0.067,13.472 0.090,13.316 L6.409,6.986 L0.090,0.657 C-0.067,0.501 -0.067,0.247 0.090,0.090 C0.246,-0.067 0.499,-0.067 0.656,0.090 L6.975,6.419 L13.294,0.090 C13.451,-0.067 13.704,-0.067 13.860,0.090 C14.017,0.247 14.017,0.501 13.860,0.657 L7.541,6.986 Z" class="cls-1"/>
</svg>
