<?xml version="1.0" encoding="utf-8"?>
<!-- Generator: Adobe Illustrator 19.1.0, SVG Export Plug-In . SVG Version: 6.00 Build 0)  -->
<svg version="1.1" id="Forma_1_1_" xmlns="http://www.w3.org/2000/svg" xmlns:xlink="http://www.w3.org/1999/xlink" x="0px" y="0px"
	 viewBox="0 0 612 612" style="enable-background:new 0 0 612 612;" xml:space="preserve">
<style type="text/css">
	.st0{fill:#9D9A99;}
</style>
<g id="Forma_1">
	<g>
		<path class="st0" d="M356.4,311.8l-0.6-0.6c-15-14.7-35.5-24-58.1-24.6c-0.4-0.1-0.8-0.1-1.3-0.1c-15.6,0-29.8-6.2-40.1-16.3
			l-0.5-0.5c-10.4-10.4-16.8-24.7-16.8-40.6c0,0,0,0,0,0s0,0,0,0c0-15.8,6.4-30.2,16.8-40.6l0.5-0.5c10.3-10.1,24.5-16.3,40.1-16.3
			c15.9,0,30.2,6.4,40.6,16.8l0,0c10.3,10.3,16.8,24.7,16.8,40.6c0,5.3,4.3,9.6,9.6,9.6c5.3,0,9.6-4.3,9.6-9.6
			c0-21.1-8.5-40.2-22.4-54l0,0l0,0c-11.7-11.7-27.2-19.6-44.5-21.8v-42.6c0-5.3-4.3-9.6-9.6-9.6c-5.3,0-9.6,4.3-9.6,9.6v42.6
			c-16.9,2.1-32.2,9.8-43.8,21.2l-0.6,0.6c-13.8,13.8-22.4,33-22.4,54.1c0,0,0,0,0,0s0,0,0,0c0,21.1,8.5,40.3,22.4,54.1l0.6,0.6
			c13.3,13,31.4,21.2,51.2,21.8c0.4,0.1,0.8,0.1,1.3,0.1c18.3,0,34.8,7.3,46.9,19.1l0.4,0.5c12.1,12.1,19.6,28.8,19.6,47.3
			c0,18.5-7.5,35.2-19.6,47.3l0,0c-12.1,12.1-28.9,19.6-47.4,19.6c-18.5,0-35.2-7.5-47.3-19.6l0,0c-12.1-12.1-19.6-28.8-19.6-47.3
			c0-5.3-4.3-9.6-9.6-9.6c-5.3,0-9.6,4.3-9.6,9.6c0,23.7,9.6,45.2,25.2,60.8l0,0l0,0l0,0c13.5,13.5,31.3,22.4,51.2,24.7v35.7
			c0,5.3,4.3,9.6,9.6,9.6c5.3,0,9.6-4.3,9.6-9.6v-35.7c19.9-2.2,37.8-11.2,51.2-24.7l0,0l0,0c15.6-15.6,25.2-37.1,25.2-60.8
			C381.6,348.9,372,327.4,356.4,311.8z"/>
	</g>
</g>
</svg>
