<svg xmlns="http://www.w3.org/2000/svg" xmlns:xlink="http://www.w3.org/1999/xlink" preserveAspectRatio="xMidYMid" width="26" height="18" viewBox="0 0 26 18">
  <defs>
    <style>
      .cls-1 {
        fill: #bd9d5e;
        fill-rule: evenodd;
      }
    </style>
  </defs>
  <path d="M23.904,18.002 L2.096,18.002 C0.940,18.002 -0.000,17.086 -0.000,15.960 L-0.000,2.040 C-0.000,0.914 0.940,-0.002 2.096,-0.002 L23.904,-0.002 C25.060,-0.002 26.000,0.914 26.000,2.040 L26.000,15.960 C26.000,17.086 25.060,18.002 23.904,18.002 ZM0.838,15.960 C0.838,16.635 1.402,17.185 2.096,17.185 L23.904,17.185 C24.598,17.185 25.162,16.635 25.162,15.960 L25.162,2.040 C25.162,1.875 25.126,1.719 25.065,1.575 L14.539,10.510 C14.115,10.871 13.558,11.052 13.000,11.052 C12.442,11.052 11.885,10.871 11.461,10.511 L0.934,1.576 C0.874,1.719 0.838,1.875 0.838,2.040 L0.838,15.960 ZM2.096,0.815 C1.879,0.815 1.684,0.883 1.506,0.977 L12.012,9.895 C12.548,10.350 13.454,10.349 13.988,9.895 L24.493,0.977 C24.315,0.883 24.121,0.815 23.904,0.815 L2.096,0.815 Z" class="cls-1"/>
</svg>
