<svg xmlns="http://www.w3.org/2000/svg" xmlns:xlink="http://www.w3.org/1999/xlink" preserveAspectRatio="xMidYMid" width="10" height="14" viewBox="0 0 10 14">
  <defs>
    <style>
      .cls-1 {
        fill: #bd9d5e;
        fill-rule: evenodd;
      }
    </style>
  </defs>
  <path d="M5.162,13.927 C5.123,13.975 5.065,14.002 5.005,14.002 C4.944,14.002 4.887,13.975 4.848,13.927 C4.650,13.683 0.004,7.931 0.004,5.155 C0.004,2.311 2.248,-0.003 5.005,-0.003 C7.762,-0.003 10.006,2.311 10.006,5.155 C10.006,7.931 5.359,13.683 5.162,13.927 ZM5.005,0.419 C2.473,0.419 0.413,2.543 0.413,5.155 C0.413,7.505 4.182,12.416 5.005,13.459 C5.827,12.415 9.597,7.504 9.597,5.155 C9.596,2.543 7.537,0.419 5.005,0.419 ZM5.005,7.550 C3.724,7.550 2.682,6.476 2.682,5.155 C2.682,3.834 3.724,2.759 5.005,2.759 C6.286,2.759 7.327,3.834 7.327,5.155 C7.327,6.476 6.285,7.550 5.005,7.550 ZM5.005,3.181 C3.950,3.181 3.091,4.066 3.091,5.155 C3.091,6.244 3.950,7.129 5.005,7.129 C6.060,7.129 6.919,6.244 6.919,5.155 C6.919,4.066 6.060,3.181 5.005,3.181 Z" class="cls-1"/>
</svg>
