<svg xmlns="http://www.w3.org/2000/svg" xmlns:xlink="http://www.w3.org/1999/xlink" preserveAspectRatio="xMidYMid" width="20" height="14" viewBox="0 0 20 14">
  <defs>
    <style>
      .cls-1 {
        fill: #b6b4b3;
        fill-rule: evenodd;
      }
    </style>
  </defs>
  <path d="M15.855,9.893 C15.667,10.075 15.667,10.370 15.855,10.551 C16.044,10.733 16.349,10.733 16.537,10.551 L19.860,7.338 C19.960,7.242 20.003,7.113 19.997,6.986 C20.003,6.859 19.960,6.730 19.860,6.634 L16.537,3.421 C16.349,3.239 16.043,3.239 15.855,3.421 C15.667,3.603 15.667,3.898 15.855,4.079 L18.381,6.521 L7.982,6.521 C7.716,6.521 7.501,6.729 7.501,6.986 C7.501,7.243 7.716,7.452 7.982,7.452 L18.381,7.452 L15.855,9.893 ZM1.876,13.999 L11.250,13.999 C12.285,13.999 13.125,13.156 13.125,12.116 L13.125,10.235 L12.187,10.235 L12.187,12.116 C12.187,12.636 11.768,13.058 11.250,13.058 L1.876,13.058 C1.358,13.058 0.938,12.636 0.938,12.116 L0.938,1.883 C0.938,1.364 1.358,0.942 1.876,0.942 L11.250,0.942 C11.768,0.942 12.187,1.364 12.187,1.883 L12.187,3.765 L13.125,3.765 L13.125,1.883 C13.125,0.844 12.285,0.001 11.250,0.001 L1.876,0.001 C0.840,0.001 0.001,0.844 0.001,1.883 L0.001,12.116 C0.001,13.156 0.840,13.999 1.876,13.999 Z" class="cls-1"/>
</svg>
