<svg xmlns="http://www.w3.org/2000/svg" xmlns:xlink="http://www.w3.org/1999/xlink" preserveAspectRatio="xMidYMid" width="19.031" height="18.75" viewBox="0 0 19.031 18.75">
  <defs>
    <style>
      .cls-1 {
        fill: #878787;
        fill-rule: evenodd;
      }
    </style>
  </defs>
  <path d="M17.403,14.614 C16.376,16.110 14.924,17.299 13.217,18.012 C12.079,18.487 10.826,18.750 9.516,18.750 C7.550,18.750 5.717,18.158 4.199,17.146 C2.681,16.135 1.474,14.704 0.751,13.021 C0.268,11.900 0.001,10.666 0.001,9.375 C0.001,7.438 0.602,5.632 1.629,4.136 C2.656,2.640 4.108,1.452 5.815,0.738 C6.954,0.263 8.206,0.000 9.516,0.000 C11.482,-0.000 13.315,0.592 14.833,1.604 C16.351,2.615 17.558,4.046 18.281,5.729 C18.764,6.850 19.031,8.084 19.031,9.375 C19.031,11.312 18.430,13.118 17.403,14.614 ZM16.352,4.836 C15.462,3.539 14.200,2.506 12.722,1.889 C11.736,1.478 10.654,1.250 9.516,1.250 C7.810,1.250 6.227,1.762 4.910,2.639 C3.593,3.516 2.545,4.759 1.919,6.216 C1.501,7.188 1.270,8.254 1.270,9.375 C1.270,11.056 1.790,12.616 2.680,13.914 C3.570,15.211 4.832,16.243 6.310,16.861 C7.296,17.272 8.378,17.500 9.516,17.500 C11.223,17.499 12.805,16.988 14.122,16.111 C15.439,15.233 16.487,13.991 17.113,12.534 C17.531,11.562 17.762,10.496 17.762,9.375 C17.762,7.693 17.242,6.134 16.352,4.836 ZM14.481,9.987 L4.551,9.987 C4.208,9.987 3.930,9.713 3.930,9.375 C3.930,9.037 4.208,8.763 4.551,8.763 L14.481,8.763 C14.824,8.763 15.102,9.037 15.102,9.375 C15.102,9.713 14.824,9.987 14.481,9.987 Z" class="cls-1"/>
</svg>
