<svg xmlns="http://www.w3.org/2000/svg" xmlns:xlink="http://www.w3.org/1999/xlink" preserveAspectRatio="xMidYMid" width="27" height="26" viewBox="0 0 27 26">
  <defs>
    <style>
      .cls-1 {
        fill: #000;
        fill-rule: evenodd;
      }
    </style>
  </defs>
  <path d="M21.733,9.612 C21.781,9.244 21.808,8.870 21.808,8.490 C21.808,3.809 18.081,-0.000 13.500,-0.000 C8.919,-0.000 5.192,3.809 5.192,8.490 C5.192,8.870 5.219,9.244 5.267,9.612 C2.186,10.855 -0.000,13.926 -0.000,17.510 C-0.000,22.191 3.727,26.000 8.308,26.000 C10.271,26.000 12.077,25.299 13.500,24.131 C14.924,25.299 16.729,26.000 18.692,26.000 C23.273,26.000 27.000,22.191 27.000,17.510 C27.000,13.926 24.814,10.855 21.733,9.612 ZM13.500,1.061 C17.508,1.061 20.769,4.394 20.769,8.490 C20.769,8.756 20.755,9.020 20.728,9.279 C20.076,9.111 19.394,9.020 18.692,9.020 C16.729,9.020 14.924,9.722 13.500,10.890 C12.077,9.722 10.271,9.020 8.308,9.020 C7.606,9.020 6.924,9.111 6.272,9.279 C6.245,9.020 6.231,8.756 6.231,8.490 C6.231,4.394 9.492,1.061 13.500,1.061 ZM13.500,12.318 C14.381,13.238 15.031,14.389 15.352,15.673 C14.760,15.833 14.140,15.918 13.500,15.918 C12.860,15.918 12.240,15.833 11.648,15.673 C11.969,14.389 12.619,13.238 13.500,12.318 ZM10.664,15.329 C8.598,14.432 7.020,12.584 6.456,10.327 C7.048,10.167 7.668,10.082 8.308,10.082 C9.967,10.082 11.498,10.654 12.723,11.615 C11.753,12.639 11.033,13.912 10.664,15.329 ZM14.277,11.615 C15.502,10.654 17.033,10.082 18.692,10.082 C19.332,10.082 19.953,10.167 20.544,10.327 C19.980,12.584 18.402,14.432 16.336,15.329 C15.967,13.912 15.247,12.639 14.277,11.615 ZM8.308,24.939 C4.299,24.939 1.038,21.606 1.038,17.510 C1.038,14.442 2.868,11.802 5.472,10.671 C6.152,13.285 8.027,15.406 10.459,16.388 C10.412,16.756 10.385,17.130 10.385,17.510 C10.385,19.799 11.277,21.878 12.723,23.406 C11.498,24.366 9.967,24.939 8.308,24.939 ZM11.423,17.510 C11.423,17.244 11.438,16.980 11.464,16.721 C12.116,16.889 12.798,16.980 13.500,16.980 C14.202,16.980 14.884,16.889 15.535,16.721 C15.562,16.980 15.577,17.243 15.577,17.510 C15.577,19.529 14.784,21.362 13.500,22.702 C12.216,21.362 11.423,19.529 11.423,17.510 ZM18.692,24.939 C17.033,24.939 15.502,24.366 14.277,23.406 C15.723,21.877 16.615,19.799 16.615,17.510 C16.615,17.130 16.588,16.756 16.541,16.388 C18.973,15.406 20.848,13.285 21.529,10.671 C24.132,11.802 25.962,14.442 25.962,17.510 C25.962,21.606 22.701,24.939 18.692,24.939 Z" class="cls-1"/>
</svg>
