<svg xmlns="http://www.w3.org/2000/svg" xmlns:xlink="http://www.w3.org/1999/xlink" preserveAspectRatio="xMidYMid" width="54" height="46" viewBox="0 0 54 46">
  <defs>
    <style>
      .cls-1 {
        fill: #bfa062;
        fill-rule: evenodd;
      }
    </style>
  </defs>
  <path d="M48.787,46.000 L5.002,46.000 C0.401,46.000 -1.275,42.855 1.025,38.877 L23.646,2.201 C25.531,-0.735 28.466,-0.735 30.351,2.201 L52.983,38.877 C55.283,42.866 53.607,46.000 48.787,46.000 ZM51.526,40.346 L28.477,3.045 C27.634,1.785 26.374,1.785 25.750,3.045 L2.701,40.346 C1.442,42.230 2.285,43.907 4.585,43.907 L49.422,43.907 C51.723,43.907 52.566,42.230 51.526,40.346 ZM26.998,39.721 C25.843,39.721 24.906,38.784 24.906,37.628 C24.906,36.472 25.843,35.535 26.998,35.535 C28.154,35.535 29.091,36.472 29.091,37.628 C29.091,38.784 28.154,39.721 26.998,39.721 ZM26.998,31.338 C25.739,31.338 24.906,30.505 24.906,29.245 L24.906,16.666 C24.906,15.625 25.739,14.573 26.998,14.573 C28.258,14.573 29.091,15.405 29.091,16.666 L29.091,29.245 C29.091,30.286 28.258,31.338 26.998,31.338 Z" class="cls-1"/>
</svg>
