<svg xmlns="http://www.w3.org/2000/svg" xmlns:xlink="http://www.w3.org/1999/xlink" preserveAspectRatio="xMidYMid" width="19" height="26" viewBox="0 0 19 26">
  <defs>
    <style>
      .cls-1 {
        fill: #bd9d5e;
        fill-rule: evenodd;
      }
    </style>
  </defs>
  <path d="M9.500,26.000 C4.262,26.000 -0.000,21.978 -0.000,17.034 C-0.000,12.091 4.262,8.069 9.500,8.069 C9.789,8.069 10.076,8.085 10.364,8.110 C10.421,8.115 10.478,8.119 10.535,8.125 C10.786,8.151 11.036,8.188 11.285,8.233 C11.377,8.250 11.469,8.269 11.561,8.288 C11.772,8.333 11.982,8.383 12.190,8.441 C12.315,8.476 12.438,8.516 12.561,8.556 C12.687,8.596 12.811,8.639 12.935,8.685 C13.128,8.756 13.318,8.834 13.504,8.916 C13.594,8.956 13.686,8.994 13.775,9.036 L13.775,4.581 C13.775,2.550 11.857,0.896 9.500,0.896 C7.143,0.896 5.225,2.550 5.225,4.581 C5.225,4.829 5.013,5.030 4.750,5.030 C4.487,5.030 4.275,4.829 4.275,4.581 C4.275,2.055 6.619,-0.000 9.500,-0.000 C12.381,-0.000 14.725,2.055 14.725,4.581 L14.725,9.554 C17.298,11.160 19.000,13.912 19.000,17.034 C19.000,21.978 14.738,26.000 9.500,26.000 ZM13.897,10.127 C13.460,9.879 13.004,9.670 12.532,9.499 C12.449,9.469 12.365,9.440 12.280,9.412 C12.150,9.369 12.020,9.328 11.889,9.292 C11.727,9.247 11.563,9.208 11.398,9.172 C11.277,9.146 11.156,9.124 11.035,9.103 C10.859,9.072 10.683,9.046 10.504,9.026 C10.422,9.017 10.342,9.009 10.260,9.002 C10.009,8.981 9.756,8.965 9.500,8.965 C4.786,8.965 0.950,12.585 0.950,17.034 C0.950,21.483 4.786,25.103 9.500,25.103 C14.214,25.103 18.050,21.483 18.050,17.034 C18.050,14.104 16.380,11.541 13.897,10.127 ZM9.500,19.724 C8.452,19.724 7.600,18.920 7.600,17.931 L7.600,15.241 C7.600,14.252 8.452,13.448 9.500,13.448 C10.548,13.448 11.400,14.252 11.400,15.241 L11.400,17.931 C11.400,18.920 10.548,19.724 9.500,19.724 ZM10.450,15.241 C10.450,14.747 10.024,14.345 9.500,14.345 C8.976,14.345 8.550,14.747 8.550,15.241 L8.550,17.931 C8.550,18.425 8.976,18.827 9.500,18.827 C10.024,18.827 10.450,18.425 10.450,17.931 L10.450,15.241 Z" class="cls-1"/>
</svg>
