<svg xmlns="http://www.w3.org/2000/svg" xmlns:xlink="http://www.w3.org/1999/xlink" preserveAspectRatio="xMidYMid" width="25" height="26" viewBox="0 0 25 26">
  <defs>
    <style>
      .cls-1 {
        fill: #bd9d5e;
        fill-rule: evenodd;
      }
    </style>
  </defs>
  <path d="M20.091,25.994 C19.051,25.994 17.794,25.723 16.412,25.181 C13.383,23.993 10.087,21.647 7.131,18.575 C4.175,15.502 1.917,12.075 0.774,8.926 C-0.265,6.063 -0.267,3.713 0.768,2.637 C0.917,2.483 1.069,2.317 1.225,2.145 C2.170,1.113 3.237,-0.049 4.652,0.003 C5.626,0.045 6.571,0.675 7.538,1.926 C10.396,5.620 9.108,6.937 7.616,8.463 L7.353,8.734 C7.109,8.988 6.648,10.162 10.936,14.619 C12.336,16.074 13.529,17.138 14.483,17.783 C15.083,18.189 16.157,18.802 16.598,18.344 L16.863,18.066 C18.330,16.520 19.597,15.185 23.148,18.153 C24.352,19.158 24.957,20.139 24.997,21.154 C25.055,22.623 23.929,23.736 22.935,24.716 C22.771,24.879 22.611,25.036 22.462,25.190 C21.948,25.725 21.126,25.994 20.091,25.994 ZM4.551,0.876 C3.546,0.876 2.638,1.869 1.835,2.748 C1.673,2.924 1.517,3.096 1.363,3.256 C0.592,4.056 0.670,6.161 1.561,8.618 C2.663,11.654 4.853,14.970 7.727,17.958 C10.600,20.943 13.789,23.219 16.710,24.363 C19.074,25.292 21.099,25.370 21.868,24.570 C22.022,24.410 22.187,24.248 22.357,24.081 C23.221,23.228 24.201,22.261 24.158,21.188 C24.128,20.451 23.612,19.658 22.623,18.832 C19.663,16.358 18.835,17.231 17.463,18.678 L17.194,18.960 C16.538,19.643 15.472,19.492 14.025,18.515 C13.022,17.836 11.782,16.733 10.342,15.235 C6.784,11.537 5.646,9.274 6.759,8.114 L7.028,7.838 C8.423,6.412 9.265,5.550 6.884,2.472 C6.087,1.445 5.325,0.908 4.616,0.877 C4.594,0.876 4.572,0.876 4.551,0.876 Z" class="cls-1"/>
</svg>
