<svg xmlns="http://www.w3.org/2000/svg" xmlns:xlink="http://www.w3.org/1999/xlink" preserveAspectRatio="xMidYMid" width="20.313" height="20" viewBox="0 0 20.313 20">
  <defs>
    <style>
      .cls-1 {
        fill: #878787;
        fill-rule: evenodd;
      }
    </style>
  </defs>
  <path d="M18.562,15.588 C17.467,17.184 15.918,18.452 14.097,19.212 C12.883,19.719 11.547,20.000 10.149,20.000 C8.052,20.000 6.097,19.368 4.478,18.289 C2.858,17.210 1.571,15.684 0.799,13.889 C0.285,12.693 0.000,11.377 0.000,10.000 C-0.000,7.934 0.641,6.007 1.736,4.412 C2.832,2.816 4.380,1.548 6.202,0.788 C7.416,0.281 8.752,0.000 10.149,0.000 C12.246,-0.000 14.202,0.632 15.821,1.711 C17.440,2.790 18.727,4.316 19.499,6.111 C20.014,7.307 20.298,8.623 20.298,10.000 C20.298,12.066 19.657,13.993 18.562,15.588 ZM17.441,5.159 C16.492,3.775 15.146,2.673 13.569,2.015 C12.517,1.576 11.363,1.334 10.149,1.334 C8.329,1.334 6.641,1.880 5.236,2.815 C3.831,3.751 2.713,5.077 2.045,6.631 C1.600,7.667 1.354,8.804 1.353,10.000 C1.354,11.794 1.908,13.457 2.857,14.841 C3.807,16.225 5.153,17.326 6.730,17.985 C7.781,18.424 8.935,18.666 10.149,18.666 C11.970,18.666 13.658,18.120 15.063,17.185 C16.467,16.249 17.585,14.923 18.253,13.369 C18.698,12.333 18.945,11.196 18.945,10.000 C18.945,8.206 18.391,6.543 17.441,5.159 ZM15.446,10.652 L10.811,10.652 L10.811,15.218 C10.811,15.579 10.515,15.871 10.149,15.871 C9.784,15.871 9.487,15.579 9.487,15.218 L9.487,10.652 L4.853,10.652 C4.487,10.652 4.191,10.360 4.191,10.000 C4.191,9.640 4.487,9.348 4.853,9.348 L9.487,9.348 L9.487,4.782 C9.487,4.421 9.784,4.129 10.149,4.129 C10.515,4.129 10.811,4.421 10.811,4.782 L10.811,9.348 L15.446,9.348 C15.811,9.348 16.108,9.640 16.108,10.000 C16.108,10.360 15.811,10.652 15.446,10.652 Z" class="cls-1"/>
</svg>
