<?xml version="1.0" encoding="utf-8"?>
<!-- Generator: Adobe Illustrator 19.1.0, SVG Export Plug-In . SVG Version: 6.00 Build 0)  -->
<svg version="1.1" id="Слой_1" xmlns="http://www.w3.org/2000/svg" xmlns:xlink="http://www.w3.org/1999/xlink" x="0px" y="0px"
	 viewBox="-292 384 26 26" style="enable-background:new -292 384 26 26;" xml:space="preserve">
<style type="text/css">
	.st0{stroke:#000000;stroke-width:0.25;stroke-miterlimit:10;}
</style>
<path class="st0" d="M-269.8,406.2c-2.5,2.5-5.9,3.8-9.2,3.8s-6.7-1.3-9.2-3.8c-2.5-2.5-3.8-5.7-3.8-9.2c0-3.5,1.4-6.7,3.8-9.2
	c2.5-2.5,5.7-3.8,9.2-3.8s6.7,1.4,9.2,3.8c2.5,2.5,3.8,5.7,3.8,9.2C-266,400.5-267.4,403.8-269.8,406.2z M-291.2,397
	c0,3.3,1.3,6.3,3.6,8.6c4.7,4.7,12.2,4.7,17,0.3l-8.6-8.6c-0.1-0.1-0.1-0.2-0.1-0.3v-12.2c-3.1,0.1-6,1.3-8.2,3.6
	C-289.9,390.7-291.2,393.8-291.2,397z M-270.4,388.4c-2.2-2.2-5.1-3.5-8.2-3.6v12l8.5,8.5c2.1-2.3,3.3-5.2,3.3-8.3
	C-266.8,393.8-268.1,390.7-270.4,388.4z"/>
</svg>
