<svg xmlns="http://www.w3.org/2000/svg" xmlns:xlink="http://www.w3.org/1999/xlink" preserveAspectRatio="xMidYMid" width="20.969" height="20" viewBox="0 0 20.969 20">
  <defs>
    <style>
      .cls-1 {
        fill: #9d9a99;
        fill-rule: evenodd;
      }
    </style>
  </defs>
  <path d="M20.500,7.251 C18.132,7.173 15.764,7.057 13.397,6.979 C12.581,4.808 11.766,2.598 10.990,0.426 C10.990,0.194 10.757,0.038 10.524,-0.000 C10.524,-0.000 10.524,-0.000 10.485,-0.000 L10.447,-0.000 C10.214,-0.000 9.981,0.155 9.981,0.426 C9.166,2.598 8.350,4.808 7.574,6.979 C5.206,7.057 2.838,7.173 0.470,7.251 C0.082,7.251 -0.228,7.793 0.121,8.065 C1.984,9.538 3.886,11.012 5.750,12.524 C5.090,14.812 4.469,17.099 3.809,19.387 C3.692,19.775 4.158,20.163 4.507,19.930 C6.487,18.612 8.467,17.293 10.447,15.975 C12.426,17.293 14.406,18.612 16.386,19.930 C16.735,20.163 17.201,19.775 17.084,19.387 C16.424,17.099 15.803,14.812 15.143,12.524 C17.007,11.050 18.909,9.577 20.772,8.065 C21.199,7.832 20.850,7.289 20.500,7.251 ZM10.214,14.967 C8.506,16.091 6.798,17.255 5.090,18.379 C5.633,16.401 6.215,14.424 6.759,12.485 C6.798,12.330 6.759,12.097 6.642,12.020 C5.012,10.740 3.382,9.461 1.790,8.181 C3.847,8.104 5.866,8.026 7.923,7.949 C8.156,7.949 8.311,7.793 8.389,7.600 C9.088,5.700 9.786,3.800 10.485,1.900 C11.184,3.800 11.883,5.700 12.581,7.600 C12.659,7.793 12.814,7.949 13.047,7.949 C15.104,8.026 17.123,8.104 19.180,8.181 C17.550,9.461 15.920,10.740 14.328,12.020 C14.212,12.136 14.173,12.330 14.212,12.485 C14.755,14.463 15.337,16.440 15.881,18.379 C14.173,17.255 12.465,16.091 10.757,14.967 C10.563,14.889 10.369,14.889 10.214,14.967 Z" class="cls-1"/>
</svg>
