<svg xmlns="http://www.w3.org/2000/svg" xmlns:xlink="http://www.w3.org/1999/xlink" preserveAspectRatio="xMidYMid" width="20" height="20" viewBox="0 0 20 20">
  <defs>
    <style>
      .cls-1 {
        fill: #bd9d5e;
        fill-rule: evenodd;
      }
    </style>
  </defs>
  <path d="M10.000,16.705 C9.813,16.705 9.629,16.695 9.445,16.685 L9.433,16.684 L4.580,19.955 C4.530,19.989 4.471,20.006 4.413,20.006 C4.364,20.006 4.314,19.994 4.270,19.969 C4.171,19.915 4.110,19.810 4.110,19.697 L4.110,15.298 C1.457,13.893 -0.000,11.432 -0.000,8.349 C-0.000,3.584 4.299,-0.009 10.000,-0.009 C15.701,-0.009 20.000,3.584 20.000,8.349 C20.000,13.113 15.701,16.705 10.000,16.705 ZM10.000,0.609 C4.645,0.609 0.606,3.936 0.606,8.349 C0.606,10.400 1.290,13.191 4.547,14.832 C4.650,14.884 4.716,14.991 4.716,15.108 L4.716,19.123 L9.182,16.113 C9.236,16.076 9.302,16.054 9.365,16.063 L9.477,16.069 C9.651,16.079 9.824,16.088 9.999,16.088 C15.354,16.088 19.393,12.761 19.393,8.349 C19.393,3.936 15.355,0.609 10.000,0.609 ZM14.490,9.078 C14.151,9.078 13.876,8.798 13.876,8.452 C13.876,8.107 14.151,7.827 14.490,7.827 C14.829,7.827 15.104,8.107 15.104,8.452 C15.104,8.798 14.829,9.078 14.490,9.078 ZM10.000,9.078 C9.661,9.078 9.386,8.798 9.386,8.452 C9.386,8.107 9.661,7.827 10.000,7.827 C10.339,7.827 10.614,8.107 10.614,8.452 C10.614,8.798 10.339,9.078 10.000,9.078 ZM5.510,9.078 C5.171,9.078 4.896,8.798 4.896,8.452 C4.896,8.107 5.171,7.827 5.510,7.827 C5.849,7.827 6.124,8.107 6.124,8.452 C6.124,8.798 5.849,9.078 5.510,9.078 Z" class="cls-1"/>
</svg>
