<svg xmlns="http://www.w3.org/2000/svg" xmlns:xlink="http://www.w3.org/1999/xlink" preserveAspectRatio="xMidYMid" width="20" height="20" viewBox="0 0 20 20">
  <defs>
    <style>
      .cls-1 {
        fill: #9d9a99;
        fill-rule: evenodd;
      }
    </style>
  </defs>
  <path d="M19.622,20.000 L10.943,20.000 C10.735,20.000 10.566,19.831 10.566,19.622 L10.566,10.943 C10.566,10.735 10.735,10.566 10.943,10.566 L19.622,10.566 C19.831,10.566 20.000,10.735 20.000,10.943 L20.000,19.622 C20.000,19.831 19.831,20.000 19.622,20.000 ZM19.245,11.321 L11.321,11.321 L11.321,19.245 L19.245,19.245 L19.245,11.321 ZM19.622,9.434 L10.943,9.434 C10.735,9.434 10.566,9.265 10.566,9.057 L10.566,0.378 C10.566,0.169 10.735,0.000 10.943,0.000 L19.622,0.000 C19.831,0.000 20.000,0.169 20.000,0.378 L20.000,9.057 C20.000,9.265 19.831,9.434 19.622,9.434 ZM19.245,0.755 L11.321,0.755 L11.321,8.679 L19.245,8.679 L19.245,0.755 ZM9.057,20.000 L0.378,20.000 C0.169,20.000 0.000,19.831 0.000,19.622 L0.000,10.943 C0.000,10.735 0.169,10.566 0.378,10.566 L9.056,10.566 C9.265,10.566 9.434,10.735 9.434,10.943 L9.434,19.622 C9.434,19.831 9.265,20.000 9.057,20.000 ZM8.679,11.321 L0.755,11.321 L0.755,19.245 L8.679,19.245 L8.679,11.321 ZM9.057,9.434 L0.378,9.434 C0.169,9.434 0.000,9.265 0.000,9.057 L0.000,0.378 C0.000,0.169 0.169,0.000 0.378,0.000 L9.056,0.000 C9.265,0.000 9.434,0.169 9.434,0.378 L9.434,9.057 C9.434,9.265 9.265,9.434 9.057,9.434 ZM8.679,0.755 L0.755,0.755 L0.755,8.679 L8.679,8.679 L8.679,0.755 Z" class="cls-1"/>
</svg>
