<svg xmlns="http://www.w3.org/2000/svg" xmlns:xlink="http://www.w3.org/1999/xlink" preserveAspectRatio="xMidYMid" width="9" height="14" viewBox="0 0 9 14">
  <defs>
    <style>
      .cls-1 {
        fill: #bd9d5e;
        fill-rule: evenodd;
      }
    </style>
  </defs>
  <path d="M8.732,8.228 L3.069,8.228 C3.611,7.877 4.218,7.566 4.815,7.266 C5.762,6.789 6.667,6.331 7.307,5.723 L8.732,5.723 C8.880,5.723 9.000,5.596 9.000,5.438 C9.000,5.282 8.881,5.154 8.732,5.154 L7.794,5.154 C7.796,5.151 7.799,5.148 7.801,5.144 C8.433,4.179 8.505,2.985 7.996,1.950 C7.404,0.746 6.150,-0.000 4.724,-0.000 C3.486,-0.000 2.491,0.381 1.764,1.132 C1.658,1.241 1.656,1.422 1.759,1.535 C1.864,1.646 2.030,1.651 2.137,1.540 C2.760,0.895 3.630,0.568 4.724,0.568 C5.951,0.568 7.022,1.198 7.522,2.213 C7.943,3.070 7.885,4.021 7.362,4.820 C7.285,4.936 7.194,5.047 7.093,5.153 L0.268,5.153 C0.119,5.154 -0.000,5.281 -0.000,5.438 C-0.000,5.594 0.119,5.722 0.268,5.722 L6.421,5.722 C5.895,6.088 5.253,6.415 4.586,6.751 C3.720,7.186 2.829,7.640 2.119,8.227 L0.268,8.227 C0.120,8.227 -0.000,8.354 -0.000,8.511 C-0.000,8.668 0.119,8.795 0.268,8.795 L1.564,8.795 C0.879,9.663 0.654,10.782 1.004,11.806 C1.478,13.188 2.837,14.000 4.657,14.000 C4.704,14.000 4.751,14.000 4.799,13.998 C5.940,13.973 6.872,13.642 7.567,13.014 C7.681,12.913 7.694,12.733 7.598,12.615 C7.504,12.496 7.335,12.478 7.221,12.581 C6.622,13.121 5.803,13.407 4.786,13.430 C3.150,13.449 1.910,12.788 1.507,11.612 C1.172,10.636 1.490,9.543 2.310,8.795 L8.732,8.795 C8.879,8.795 8.999,8.669 8.999,8.511 C9.000,8.354 8.880,8.228 8.732,8.228 Z" class="cls-1"/>
</svg>
