<svg xmlns="http://www.w3.org/2000/svg" xmlns:xlink="http://www.w3.org/1999/xlink" preserveAspectRatio="xMidYMid" width="46" height="29" viewBox="0 0 46 29">
  <defs>
    <style>
      .cls-1 {
        fill: #c8ae7b;
        fill-rule: evenodd;
      }
    </style>
  </defs>
  <path d="M3.140,25.091 L42.860,25.091 C43.439,25.091 43.905,24.625 43.905,24.045 C43.905,23.466 43.439,23.000 42.860,23.000 L41.819,23.000 C41.819,12.955 33.944,4.774 24.034,4.234 C24.039,4.217 24.048,4.199 24.048,4.182 L24.048,1.045 C24.048,0.470 23.577,-0.000 22.998,-0.000 C22.419,-0.000 21.952,0.470 21.952,1.045 L21.952,4.182 C21.952,4.199 21.961,4.217 21.966,4.234 C12.056,4.774 4.181,12.955 4.181,23.000 L3.140,23.000 C2.561,23.000 2.095,23.470 2.095,24.045 C2.091,24.625 2.561,25.091 3.140,25.091 ZM22.998,6.273 C32.236,6.273 39.723,13.761 39.723,23.000 L6.272,23.000 C6.272,13.761 13.759,6.273 22.998,6.273 ZM42.000,29.000 L45.000,29.000 C45.579,29.000 46.000,28.807 46.000,28.227 C46.000,27.648 45.534,27.182 44.955,27.182 L1.045,27.182 C0.466,27.182 -0.000,27.648 -0.000,28.227 C-0.000,28.802 0.421,29.000 1.000,29.000 L42.000,29.000 " class="cls-1"/>
</svg>
